<svg xmlns="http://www.w3.org/2000/svg" viewBox="0 0 290.6 290.6"><path d="M75 234.4c0 7.7 6.3 14 14 14h112.6c7.7 0 14-6.3 14-14V164H75v70.4zm75-61h56.3v61c0 2.6-2.2 4.7-4.7 4.7H150v-65.6zm-65.6 0h56.2V239H89c-2.5 0-4.6-2-4.6-4.6v-61z"/><path d="M93.8 178h14v9.5H94zM117.2 178h14v9.5h-14zM159.4 178h14v9.5h-14zM182.8 178h14v9.5h-14zM103 75h9.5v9.4H103zM122 75h9.3v9.4H122zM140.6 75h9.4v9.4h-9.4zM159.4 75h9.4v9.4h-9.4zM178 75h9.5v9.4H178z"/><path d="M242.3 37L195 17c-1.7-1-2.8-2.6-2.8-4.4V0h-9.4v12.6c0 5.6 3.4 10.7 8.5 13l5.6 2.3v33H93.6V28l5.6-2.5c5.2-2.2 8.5-7.3 8.5-13V0h-9.4v12.6c0 1.8-1 3.5-2.8 4.3L48.3 37C19 49.8 0 78.6 0 110.5v180.2h9.4V110.4C9.4 82.2 26 57 52 45.8l32.4-14v33.8c0 44.7-26.5 54-37.5 55.8v-23h-9.5v192.2H253V98.4h-9.3v23c-11-1.8-37.4-10.8-37.4-55.8V32l32.3 13.8c26 11 42.6 36.4 42.6 64.6v180.2h9.4V110.4c0-32-19-60.7-48.3-73.3zm1.4 93.8v150.4H47V130.8c12.2-2 44.7-11.5 46.6-60.5H197c2 49 34.4 58.6 46.8 60.5z"/></svg>