<svg xmlns="http://www.w3.org/2000/svg" viewBox="0 0 512 512">
  <path fill="#ff0000" d="M16 452.7c-2.6 0-5.2-1-7.2-2.9-2.9-2.7-4-6.8-2.9-10.6l28.5-100.5C11.9 310.4 0 278.3 0 245.7c0-50.5 27.1-97.6 76.3-132.9 48.1-34.5 112-53.5 179.7-53.5 67.7 0 131.6 19 179.7 53.5C484.9 148 512 195.2 512 245.7s-27.1 97.6-76.3 132.9C387.6 413 323.7 432 256 432c-41.5 0-82.6-7.4-119.3-21.4L19.5 452c-1.1.5-2.3.7-3.5.7zM256 80.4c-129.5 0-234.9 74.1-234.9 165.2 0 29.3 11.4 58.3 33 83.9 2.3 2.7 3 6.3 2.1 9.7l-24.4 86.1 101.7-36c2.4-.9 5-.8 7.4.1 35.1 14 75 21.4 115.2 21.4 129.5 0 234.9-74.1 234.9-165.3-.1-90.9-105.5-165.1-235-165.1z"/>
</svg>
