<svg xmlns="http://www.w3.org/2000/svg" viewBox="0 0 290.6 290.6"><path d="M276.3 93.8h14.3V56.3h-19c-2.4-29-26.5-51.6-56-51.6-25 0-39 15.3-44.8 23.6l-2-.2c-13.2 0-24.6 8-29.8 19.2C132.7 20.2 108.6 0 79.7 0 47.7 0 21.4 24.8 19 56.3H0v37.5h14.2c1 23 10.6 43.6 25.3 59.3l12 114.5c.3 13 15.3 23 28.2 23H211c13 0 28-10 28-23L251 153c14.8-15.6 24.2-36.3 25.3-59.3zM253 136l4.3-42.3h9.6c-1 15.6-6 30-14 42.3zm-84.3-98.5c8.2 0 15 4.2 19.4 11.7l8.2-4.7c-3.7-6.5-9-11.3-15.3-14 5.6-7 16.7-16.4 34.6-16.4 24.3 0 44.3 18.6 46.7 42.3H145.8c2.2-10.7 11.6-18.8 23-18.8zm112.6 28v19H112.4v-4.8c0-7.8 6.3-14 14-14h154.8zM79.7 9.6c26.8 0 49 20.5 51.3 46.8h-4.4c-13 0-23.5 10.5-23.5 23.4V122c0 7.6-6.2 14-14 14-7.7 0-14-6.4-14-14V56H28.4C30.7 30 52.8 9.5 79.7 9.5zm-56 84.3h9.6l4.4 42c-8-12.2-13.3-26.5-14-42zM9.3 84.3V65.6h56.2v18.8H9.4zm220.3 182.3v.5c0 7.2-10.6 14-18.8 14H79.6c-8.2 0-18.8-6.8-18.8-14L50 162.8c14.7 11.6 33 18.8 53 19.8v9.6h84.5v-9.6c20-1 38.4-8.3 53.2-20l-11 104zm-117.2-84v-9.3H178v9.4h-65.5zM242 149c-14 14-33.3 23-54.5 24.2v-9H103v9C82 172 62.8 163 48.6 149l-5.8-55.3h23V122c0 12.8 10.4 23.3 23.4 23.3s23.5-10.5 23.5-23.4V93.6H248l-6 55.3z"/><path d="M267.2 220.3c-13 0-23.4 10.5-23.4 23.5s10.5 23.4 23.4 23.4 23.4-10.5 23.4-23.4-10.5-23.5-23.4-23.5zm0 37.5c-7.8 0-14-6.3-14-14 0-7.8 6.2-14 14-14 7.7 0 14 6.2 14 14 0 7.7-6.3 14-14 14zM75 262.5h9.4v9.4H75zM93.8 262.5h9.4v9.4h-9.4zM206.3 262.5h9.4v9.4h-9.4zM173.4 220.3c0 7.8 6.3 14 14 14 8 0 14.2-6.2 14.2-14 0-7.7-6.3-14-14-14s-14.2 6.3-14.2 14zm18.8 0c0 2.6-2 4.7-4.7 4.7s-4.7-2-4.7-4.7 2-4.7 4.7-4.7 4.7 2 4.7 4.7z"/></svg>