<svg xmlns="http://www.w3.org/2000/svg" viewBox="0 0 292 292"><path d="M164.6 132H123l8.8-108c0-12.8-10.5-23.3-23.4-23.3C95.4.7 85 11.2 85 24.5L94 132H52c-18.3 0-35.4 14.7-37.3 32.2L0 291.2h216.8l-14.7-127c-1.8-17.5-19-32.3-37.4-32.3zM108.4 10c7.7 0 14 6.4 14 13.7l-9 108.2h-10l-9-108c0-7.6 6.2-14 14-14zm-98 272L24 165c1.4-12.5 14.8-24 28-24h112.6c13.4 0 26.8 11.5 28.2 24L206.2 282H10.5z"/><path d="M160 150.7H56.7c-13.3 0-21.8 8.3-23.4 22.7l-14 98.5 9.2 1.2 14-98.6c1.6-13 9-14.5 14.2-14.5h103c5.5 0 12.8 1.6 14.3 14.8l14 98.4 9.4-1.3-14-98.4c-1.6-14.6-10.2-23-23.5-23zM168.5.7l10.2 66v13.7c0 7.7 6.3 14 14 14h23.6l-4.8 122c0 11.8 6.8 18.7 18.8 18.7s18.7-6.8 18.7-19l-4.8-121.6h23.6c7.7 0 14-6.3 14-14V66.7L292 .7H168.5zm61.8 225c-6.8 0-9.4-2.7-9.4-9.2l4.7-122h9l5 121.8c0 6.7-2.7 9.4-9.4 9.4zm42-145.3c0 2.5-2 4.6-4.5 4.6h-75c-2.6 0-4.7-2-4.7-4.6V71h84.5v9.4zm.8-18.8h-47.4V28.8h-9.4v32.8h-28.8l-8-51.5h83.2L258.4 52l9.3 1L272 10h9l-8 51.6z"/><path d="M216.2 14.7h9.4V24h-9.4zM235 43h9.3v9.3H235zM52 169.4h9.5v9.4H52zM146 263.2h9.3v9.4H146zM164.6 263.2h9.4v9.4h-9.4z"/></svg>