<svg xmlns="http://www.w3.org/2000/svg" viewBox="0 0 512 512">
  <g fill="#ff0000">
    <path d="M501.5 428.2h-491c-5.8 0-10.5-4.7-10.5-10.5V94.3c0-5.8 4.7-10.5 10.5-10.5h490.9c5.8 0 10.5 4.7 10.5 10.5v323.3c.1 5.9-4.6 10.6-10.4 10.6zM21.1 407.1h469.8V104.9H21.1v302.2z"/>
    <path d="M256 266.5c-2 0-4-.6-5.8-1.7L4.7 103.1c-4.9-3.2-6.2-9.7-3-14.6s9.7-6.2 14.6-3L256 243.4 495.7 85.5c4.9-3.2 11.4-1.9 14.6 3 3.2 4.9 1.9 11.4-3 14.6L261.8 264.8c-1.8 1.2-3.8 1.7-5.8 1.7z"/>
    <path d="M10.6 428.2c-2.9 0-5.9-1.2-8-3.6-3.8-4.4-3.4-11.1 1-14.9l211.5-184.1c4.4-3.8 11.1-3.4 14.9 1 3.8 4.4 3.4 11.1-1 14.9L17.5 425.6c-2 1.8-4.5 2.6-6.9 2.6zM501.4 428.2c-2.5 0-4.9-.9-6.9-2.6l-211.4-184c-4.4-3.8-4.9-10.5-1-14.9 3.8-4.4 10.5-4.9 14.9-1l211.5 184.1c4.4 3.8 4.9 10.5 1 14.9-2.2 2.3-5.1 3.5-8.1 3.5z"/>
  </g>
</svg>
