<svg xmlns="http://www.w3.org/2000/svg" viewBox="0 0 290.6 290.6"><path d="M132 213.5c1.2 1.8 2 6 .4 8.8-.4.7-1.4 2.7-5.8 2.7H105l6-6-6.5-6.7-17 17 16.6 22 7.6-5.7-8.5-11.2h23.6c8.7 0 12.5-4.8 14-7.7 3.4-6 2-14-.8-18.4l-7.8 5.2zM88 182.8H61v9.4h13.6L62 207.8c-3.8 4.2-5 11.5-2.6 17.2 2.4 6 8 9.4 15.6 9.4h4.7V225H75c-3.7 0-6-1.2-7-3.5-1-2.8-.2-6 1-7.2l13-16.5 2.5 9.6 9-2.3L88 183zM131 191.8l-10-16.3-.6-1c-2.2-3.7-6.4-10.4-17.3-10.4-10.8 0-15 6.8-17.2 10.5l-.6 1 7.8 5.2.8-1.3c2-3 3.7-6 9.3-6s7.6 3 9.4 6c.3.5.6 1 .8 1L123 197h-15.2v9.3H134l10.8-21.4-8.4-4.3-5.5 11zM168.8 225h9.4v9.4h-9.4zM168.8 206.3h9.4v9.4h-9.4z"/><path d="M234.6 69.2c16.5-8.6 28-26 28-45.8 0-10.3-8.5-18.7-19-18.7-5 0-9.8 2-13.2 5.6C226 4 219 0 211 0c-8 0-15.3 4-19.5 10.3-3.4-3.5-8-5.6-13.4-5.6-10.2 0-18.6 8.4-18.6 18.7 0 20 11.3 37.2 28 45.8-11 3.3-20.8 9-29.4 16.7-10.3-8-22.2-14-35-17.2 16-8.7 27-25.8 27-45.4 0-10.3-8.4-18.7-18.8-18.7-5.2 0-10 2-13.3 5.6C113.5 4 106.4 0 98.3 0c-8 0-15.2 4-19.4 10.3-3.4-3.5-8-5.6-13.4-5.6C55.3 4.7 47 13 47 23.4 47 43 58 60 74 68.8 31.5 79.8 0 118.2 0 164v61c0 36.2 29.4 65.6 65.6 65.6h65.7c26 0 48.6-15.3 59.2-37.5h58c23.2 0 42-18.8 42-42v-65.7c0-35.7-23.5-66-56-76zm-65.8-45.8c0-5 4.2-9.3 9.3-9.3s9.5 4.3 9.5 9.4h9.4c0-7.7 6.2-14 14-14 7.7 0 14 6.3 14 14h9.4c0-5 4.2-9.3 9.3-9.3s9.4 4.3 9.4 9.4c0 23.3-18.8 42.2-42 42.2s-42.3-19-42.3-42.2zm19.8 55.3c-4.2 6.2-8 15-10.7 27.5-3.8-5-8-10-12.7-14.2 7-6 14.8-10.4 23.3-13.3zM56.3 23.4c0-5 4.2-9.3 9.3-9.3s9.4 4.3 9.4 9.4h9.4c0-7.7 6.3-14 14-14 7.8 0 14 6.3 14 14h9.5c0-5 4-9.3 9.3-9.3s9.3 4.3 9.3 9.4c0 23.3-19 42.2-42.2 42.2s-42.2-19-42.2-42.2zM187.4 225c0 31-25.2 56.3-56.3 56.3H65.7c-31 0-56.2-25.3-56.2-56.3v-61c0-40.5 27.3-74.8 64.5-85.5C60.3 94 51.5 122 51.5 154.7H61C61 111.5 78 75 98.3 75s37.5 36.5 37.5 79.7h9.3c0-32.7-9-60.7-22.3-76.2 37.2 10.7 64.5 45 64.5 85.6v61zm93.8-14c0 18-14.8 32.8-33 32.8h-54.2c2-6 3-12.3 3-18.8v-61c0-16.6-4.3-32.4-11.7-46 2.5-16.8 9-43 25.6-43 17.3 0 28 30.5 28 79.7h9.4c0-35.8-5-61.6-15-76 27.8 9.5 48 35.7 48 66.6V211z"/></svg>