<svg xmlns="http://www.w3.org/2000/svg" viewBox="0 0 291.5 291.5"><path d="M145.7 0l-53 33.6C85 28.6 80 20 80 10.2h-9.3c0 15.5-12.6 28.2-28 28.2v9.3c6.5 0 12.5 2.3 17.3 6L.4 92.2v58l28.2-17.8v37.4C28.6 182.6 18 193 5 193v9.4c13 0 23.6 10.5 23.6 23.5v65.5H263V132.2l28 17.8V92L145.8 0zM75.4 28.4C78.8 34.4 84 39.6 90 43c-6 3.5-11.2 8.6-14.6 14.7-1.8-3.4-4.3-6.4-7-9l-.2-.2c-2.3-2-4.7-4-7.4-5.5 6-3.4 11.2-8.5 14.6-14.6zM22 197.7c4.6-2.7 8.5-6.6 11.2-11.2C36 191 40 195 44.5 197.7c-4.6 2.8-8.5 6.7-11.3 11.3-2.7-4.6-6.6-8.5-11.2-11.3zM131.7 282H75.4V160.3h56.3v122zm122 0H141V151H66v131H38v-56c0-13 10.4-23.6 23.4-23.6V193c-13 0-23.5-10.5-23.5-23.4v-43.3L145.6 58 176 77c-7.7 8-18.4 13-30.3 13v9.3c23.3 0 42.2 19 42.2 42.2h9.3c0-16 9-29.8 22-37l34.3 21.8V282zm-61-212.8c5 11.2 14 20.3 25.3 25.4-11.2 5.2-20.2 14.2-25.4 25.4-5-11.2-14.2-20.2-25.4-25.4 11.2-5 20.3-14.2 25.4-25.4zm89 63.8l-51.5-32.6c3-.7 6-1 9.3-1v-9.5c-23.3 0-42.2-19-42.2-42.3H188c0 8-2.4 15.6-6.3 22l-36-22.8-136 86V97.2l56.6-36.4c2.8 4.4 4.4 9.5 4.4 15H80c0-15.4 12.7-28 28.2-28v-9.4c-1.6 0-3.2-.2-4.8-.5l42.3-27 136 86.2V133z"/><path d="M159.8 207H230v-56H160v56zm9.4-46.8h51.5v37.5h-51.5v-37.5zM113 221.2h9.3v9.4H113z"/><path d="M202 169.6h9.4v9.4H202zM234.8 263.4h9.4v9.4h-9.4zM216 263.4h9.5v9.4H216zM197.3 263.4h9.4v9.4h-9.4z"/></svg>