<svg xmlns="http://www.w3.org/2000/svg" viewBox="0 0 290.6 290.6"><path d="M131.3 262.5h9.4v9.4h-9.4zM112.5 262.5h9.4v9.4h-9.5zM248.4 215.6c0 7.8 6.3 14 14 14 8 0 14.2-6.2 14.2-14 0-7.7-6.3-14-14-14-8 0-14.2 6.3-14.2 14zm14-4.7c2.7 0 4.8 2 4.8 4.6 0 2.6-2 4.7-4.7 4.7-2.6 0-4.7-2-4.7-4.7 0-2.6 2-4.7 4.7-4.7zM234.4 187.5c10.3 0 18.7-8.4 18.7-18.8s-8.3-18.7-18.6-18.7-18.8 8.4-18.8 18.8 8.4 18.7 18.8 18.7zm0-28c5 0 9.3 4 9.3 9.3s-4.2 9.3-9.3 9.3-9.4-4-9.4-9.3 4.2-9.3 9.4-9.3z"/><path d="M272 253h-23.6c-2.5 0-4.7-2-4.7-4.6 0-2.6 2.2-4.7 4.7-4.7v-9.3c-7.7 0-14 6.3-14 14 0 7.8 6.3 14 14 14H272c5 0 9.3 4.3 9.3 9.5 0 5-4.3 9.3-9.4 9.3h-98.7c2-2.8 3.6-6 4.3-9.4h42.7v-9.5h-42.6c-2.2-10.7-11.7-18.8-23-18.8v-37.4h4.7v-4.7c0-13-10.5-23.5-23.5-23.5H98.3V18.8C98.4 8.4 90 0 79.7 0 69.3 0 61 8.4 61 18.8V178H23.3C10.4 178 0 188.7 0 201.7v4.7h4.7v61c0 12.8 10.5 23.3 23.4 23.3H272c10.2 0 18.6-8.4 18.6-18.7s-8.4-19-18.7-19zM70.2 18.8c0-5 4.2-9.3 9.4-9.3s9.4 4.2 9.4 9.3v136H70.4v-136zm0 145.4H89v14H70.4v-14zm-60 33c1.8-5.6 7-9.5 13-9.5H136c6 0 11.3 4 13.2 9.4h-139zm144.4 84.3H28c-6 0-11-4-13-9.4h88v-9.5H14v-56.3H33v28.2h9.4v-28.2h103V258c0 7.8 6.4 14 14.2 14v-9.3c-2.6 0-4.7-2-4.7-4.7V253c7.7 0 14 6.4 14 14.2 0 7.7-6.3 14-14 14z"/></svg>