<svg xmlns="http://www.w3.org/2000/svg" viewBox="0 0 290.6 290.6"><path d="M257.8 28h-35L204 0H86.7L67.8 28h-35C14.8 28 0 43 0 61v229.6h290.6V61c0-18.2-14.7-33-32.8-33zM91.6 9.5H199L214.8 33l-42 67.3-21-20.8 48.6-53-7-6.2-7 7.8h-82l-7-7.7-7 6.3 48.5 53-20.8 20.7L76 33 91.5 9.3zm53.7 63.4L113 37.5h64.6l-32.3 35.3zm-18.7 208.4H9.4V61c0-13 10.5-23.5 23.4-23.5h35l48.5 77.8 10.3-10.2v176.3zm154.7 0H135.8V95.8l9.3-9.4 29 29L223 37.5h34.8c13 0 23.5 10.5 23.5 23.4v220.3z"/><path d="M140.6 93.8h9.4v9.4h-9.4zM140.6 140.6h9.4v9.4h-9.4zM140.6 239h9.4v9.5h-9.4zM140.6 192.2h9.4v9.4h-9.4zM187.5 204.5l32.8 16.4 32.8-16.5V136h-65.5v68.5zM197 164h32.7v-9.3H197v-9.4h46.8v9.4H239v9.4h4.8v34.7l-23.5 11.7-23.4-11.7V164zM23.4 51.6h9.4V61h-9.4zM23.4 70.3h9.4v9.4h-9.4zM84.4 126.6v-9.4c-15.5 0-28-12.6-28-28h-9.5c0 15.4-12.7 28-28.2 28v9.4c15.5 0 28 12.6 28 28h9.5c0-15.4 12.6-28 28-28zm-32.8 10C48 130.3 43 125.2 37 121.8c6-3.5 11-8.6 14.6-14.8 3.4 6.2 8.5 11.3 14.6 14.7-6 3.3-11.2 8.4-14.6 14.5zM93.8 187.5h-9.4c0 13-10.5 23.4-23.5 23.4v9.3c13 0 23.4 10.5 23.4 23.5h9.4c0-13 10.5-23.5 23.4-23.5V211c-13 0-23.4-10.6-23.4-23.5zM89 227c-2.7-4.7-6.6-8.6-11.2-11.4 4.6-2.7 8.5-6.6 11.3-11.2 2.8 4.6 6.7 8.5 11.3 11.2-4.6 2.8-8.5 6.7-11.2 11.3z"/></svg>