<svg xmlns="http://www.w3.org/2000/svg" viewBox="0 0 512 512">
  <path d="M207.9 455.7c-30.6 0-55.4-24.9-55.4-55.4 0-30.6 24.9-55.4 55.4-55.4 30.6 0 55.4 24.9 55.4 55.4.1 30.6-24.8 55.4-55.4 55.4zm0-89.7c-18.9 0-34.3 15.4-34.3 34.3s15.4 34.3 34.3 34.3 34.3-15.4 34.3-34.3-15.3-34.3-34.3-34.3zM365 455.7c-30.6 0-55.4-24.9-55.4-55.4 0-30.6 24.9-55.4 55.4-55.4s55.4 24.9 55.4 55.4c0 30.6-24.8 55.4-55.4 55.4zm0-89.7c-18.9 0-34.3 15.4-34.3 34.3s15.4 34.3 34.3 34.3 34.3-15.4 34.3-34.3S383.9 366 365 366z"/>
  <path d="M419.7 360.7H153.2c-4.9 0-9.1-3.3-10.2-8.1L76.1 77.4H10.5C4.7 77.4 0 72.6 0 66.8s4.7-10.5 10.5-10.5h73.9c4.9 0 9.1 3.3 10.2 8.1l21 86.4h385.8c3.6 0 6.9 1.8 8.8 4.8 1.9 3 2.3 6.7.9 10l-81.7 188.9c-1.7 3.7-5.5 6.2-9.7 6.2zm-258.2-21.1h251.3l72.6-167.8H120.8l40.7 167.8z"/>
</svg>
