<svg xmlns="http://www.w3.org/2000/svg" viewBox="0 0 24 24"><path d="M23 7h-7.7l4.5-4.5c.4-.4.4-1 0-1.5L19 .3c-.4-.4-1-.4-1.5 0L12 5.8 6.5.3C6 0 5.5 0 5 .3l-.7.8c-.4.5-.4 1.2 0 1.6L8.8 7H1c-.6 0-1 .4-1 1l2 15c0 .6.4 1 1 1h18c.6 0 1-.4 1-1l2-15c0-.6-.4-1-1-1zm-4.8-6l.8.8L13.8 7l-.8-.7L18.2 1zM12 7c.6 0 1 .4 1 1s-.4 1-1 1-1-.4-1-1 .4-1 1-1zM5 1.8L6 1 11 6.4c-.3.2-.6.4-.7.7L5 1.8zM20 22H4L2.5 12h19L20 22zm1.7-11H2.3L2 9h8.3c.3.6 1 1 1.7 1s1.4-.4 1.7-1H22l-.3 2z"/><path d="M10 13h1v8h-1zM13 13h1v8h-1zM7 13h1v8H7zM16 13h1v8h-1z"/></svg>
