<svg xmlns="http://www.w3.org/2000/svg" width="500" height="500" viewBox="0 0 500 500"><g transform="translate(0 -552.362)"><rect width="500" height="500" y="552.4" fill="#2a5b83" rx="250" ry="250"/><path fill="#fff" d="M356.5 642.4h-1.3c-31.7.8-128 .3-180.4 0v92h-62.4V655c-12.7 10.4-22 25.7-22 39.8l-.2 49.7h96L177 755H90L90 908.5c0 26 27.8 54 53.7 54l210.7-.2c28 0 55.6-26 55.6-54.7V755h-87l-9.3-10.7H410l-.2-49.8c0-25.2-27-52-53.3-52zm-23.2 22c13.4.2 26 0 40.3 0 4.8 0 10.3 5.5 10.3 10.3V716c0 4.7-5.6 10-10.4 10h-40.3c-5 0-10.5-5.3-10.5-10v-41.3c0-5 5.7-10.2 10.5-10.2zM250 721.2c45.4 0 82 36.6 82 81.7 0 45-36.6 81.6-82 81.6-45.3 0-82-36.5-82-81.6 0-45 36.7-81.6 82-81.6zm0 9.2c-39.6 0-71.8 32.2-71.8 72 0 39.7 32.2 72 72 72 39.6 0 71.7-32.3 71.7-72 0-39.8-32.2-72-72-72zm.8 17.6c29.6 0 53.5 24 53.5 53.6s-24 53.6-53.5 53.6c-29.6 0-53.6-24-53.6-53.6s24-53.6 53.6-53.6z"/></g></svg>
