<svg xmlns="http://www.w3.org/2000/svg" width="500" height="500" viewBox="0 0 500 500"><g transform="translate(0 -552.362)"><rect width="500" height="500" y="552.4" fill="#537599" rx="250" ry="250"/><path fill="#fff" d="M261.3 712c-17 .2-28 .2-43.2.2-12.7 0-20 5.2-20 8.3-.4 2.8 6.2 5 10.2 7.4 3.8 2.2 7.3 9.8 7.3 15v44.4c0 4.2-1 7-4.4 10-1.6 1.2-3.5 1.6-5.6 1.5-1.7 0-4-.4-5.5-2.4-17-22-17-24.6-40.7-68.6-1-2-2.3-4.4-4.6-6-2.4-1.8-6-3-11.4-3-19 0-30.7.4-43.2.4-11.7 0-10.6 7.2-9 10.5 14 29.5 28.5 57.7 45 86.3 19.4 33.6 37.2 53.7 67 68.2 7 3.4 19.3 6.8 33.8 6.8h30.6c4 0 10.5-3 10.5-7.3v-23c0-6.5 6.4-9 10-10.5 4.2-2 8.6 1 10.8 3.5 17 18.3 15.2 16.3 30.8 32.7 3.5 3.7 6.2 5.6 13 5.6H398c3 0 7.4-4.4 8.3-6.2 1.3-2 4.2-10.3-.4-15.5-15.8-18-32-34.3-47.3-50.5-1.2-1.3-2-3-2-4.7-.2-1.8 1-3.6 2-5.2 17.3-24 31.6-44.3 47.2-69.6 5-8.2 4.3-14 3.4-16-1-2.3-4.4-5.5-8.2-5.6-20.8 0-29.8-.4-52-.3-6.6 0-12.5-.5-16 7.4-10 21.3-25.8 54-39.6 67.5-2.5 2.5-6 4.3-9 4.3s-6-2-6.5-6.8c-.2-23.3 0-43 0-66 0-6.8-3-8.6-5.2-10.2-3-2-7.8-2.7-11.5-2.7z"/></g></svg>
