<svg xmlns="http://www.w3.org/2000/svg" width="500" height="500" viewBox="0 0 500 500"><g transform="translate(0 -552.362)"><rect width="500" height="500" y="552.4" fill="#cc181e" rx="250" ry="250"/><path fill="#fff" d="M250 682.3s-67.3 0-112 3.5c-6.3.7-20 .8-32 14.4-9.7 10.4-12.8 34-12.8 34S90 761.6 90 789v26c0 27.7 3.2 55.3 3.2 55.3s3 23.5 12.7 33.8c12 13.6 28 13.2 35.2 14.6 25.6 2.6 108.8 3.4 108.8 3.4s67.2-.2 112-3.6c6.3-.8 20-1 32-14.4 9.7-10.4 12.8-34 12.8-34s3.2-27.5 3.2-55.2v-25.8c0-27.7-3.2-55.3-3.2-55.3s-3-23.4-12.7-33.8c-12-13.6-25.7-13.7-32-14.4-44.8-3.5-112-3.5-112-3.5zm-40 60l100 60-100 60v-120z"/></g></svg>
