<svg xmlns="http://www.w3.org/2000/svg" viewBox="0 0 32 32"><g><path d="M24.8 11.4c-.2-.2-.5-.4-.8-.4h-1c-.6 0-1 .4-1 1v6c0 .6.4 1 1 1h4c.6 0 1-.4 1-1v-1.5c0-.2 0-.4-.2-.6l-3-4.6zM27 18h-4v-6h1l3 4.5V18z"/><path d="M31.5 15.3l-4-6C27 8.5 26 8 25 8h-4V6c0-1.7-1.3-3-3-3H3C1.3 3 0 4.3 0 6v11c0 1.7 1.3 3 3 3v3c0 1.7 1.3 3 3 3h1c.6 1.7 2 3 4 3s3.4-1.3 4-3h5c.6 1.7 2 3 4 3s3.4-1.3 4-3h1c1.7 0 3-1.3 3-3v-6c0-.6-.2-1.2-.5-1.7zM3 18c-.6 0-1-.4-1-1V6c0-.6.4-1 1-1h15c.6 0 1 .4 1 1v11c0 .6-.4 1-1 1H3zm8 9c-1 0-2-1-2-2s1-2 2-2 2 1 2 2-1 2-2 2zm13 0c-1 0-2-1-2-2s1-2 2-2 2 1 2 2-1 2-2 2zm6-4c0 .6-.4 1-1 1h-1c-.6-1.7-2-3-4-3s-3.4 1.3-4 3h-5c-.6-1.7-2-3-4-3s-3.4 1.3-4 3H6c-.6 0-1-.4-1-1v-3h13c1.7 0 3-1.3 3-3v-7h4c.3 0 .6.2.8.4l4 6 .2.6v6z"/></g></svg>
