<svg xmlns="http://www.w3.org/2000/svg" viewBox="0 0 290.6 290.6"><path d="M257.8 253v-18.6h-9.4V51.6C248.4 23 225.4 0 197 0s-51.7 23-51.7 51.6V136c0 2.5-2 4.6-4.7 4.6h-31.3c-8-2.2-16.3-3.7-25-4.3V122h-42v14h-9.5C14.8 136 0 150.6 0 168.7v61C0 242.5 10.5 253 23.4 253h26.2c5.6 14 19 23.6 34.8 23.6s29-9.7 34.7-23.5h40.4c13 0 23.4-10.4 23.4-23.3 0-24.4-10.2-46.4-27.2-63 10.4-4 17.8-14.2 17.8-26v-89c0-13 10.6-23.6 23.5-23.6s23.3 10.6 23.3 23.6v182.8H211V253h-33v37.6h112.6V253h-32.8zM51.6 131.3H75v4.7H51.6V131zm32.8 136c-15.5 0-28.2-12.6-28.2-28s12.7-28.3 28.2-28.3 28 12.6 28 28-12.5 28.2-28 28.2zm89-37.5c0 7.7-6.3 14-14 14h-37.8c0-1.5.3-3 .3-4.6 0-20.6-17-37.4-37.6-37.4S47 218.4 47 239c0 1.7 0 3.2.2 4.8H23.4c-7.7 0-14-6.4-14-14v-61c0-13 10.5-23.5 23.4-23.5H75c55.2 0 98.4 37 98.4 84.4zm23.5-211c-18.2 0-33 14.8-33 33v89c0 9.8-7.6 17.8-17.2 18.5-4.4-3.4-9.2-6.5-14.3-9.2h8c8 0 14.2-6.3 14.2-14V51.5c0-23.3 19-42.2 42.2-42.2s42 19 42 42.2v182.8h-9.3V51.6c0-18-14.7-33-32.8-33zm23.3 225h28v9.4h-28v-9.3zm61 37.6h-93.8v-18.8H281.2v18.8z"/><path d="M159.4 281.3h9.4v9.4h-9.4zM140.6 281.3h9.4v9.4h-9.4zM122 281.3h9.3v9.4H122zM18.8 159.4h9.4v9.4h-9.4zM18.8 178h9.4v9.5h-9.4zM84.4 220.3c-10.4 0-18.8 8.4-18.8 18.8S74 258 84.4 258 103 249.4 103 239s-8.3-18.7-18.6-18.7zm0 28c-5.2 0-9.4-4-9.4-9.2s4.2-9.3 9.4-9.3 9.3 4.2 9.3 9.4-4.2 9.4-9.3 9.4z"/></svg>