<svg xmlns="http://www.w3.org/2000/svg" viewBox="0 0 507.8 17.4"><path fill="red" d="M8 11c0 2.6-1.6 4-4.2 4H0V.3h3.4c2.5 0 3.9 1.4 3.9 3.8S6.5 7 5.4 7.4C7 7.7 8 9 8 11zM1.3 1.5v5.3h2.2C5.2 6.8 6 5.9 6 4.1s-.8-2.6-2.6-2.6zM6.6 11a2.8 2.8 0 0 0-3.1-2.9H1.3v5.7h2.5c1.9 0 2.9-.9 2.9-2.8zM18 .3V15h-1.3V8.1h-5.2V15h-1.3V.3h1.3v6.6h5.2V.3zM21.2.3h1.3v9.3c0 .7 0 2.1-.1 2.8h.1l1-2.4L27.8.3h1.5V15H28V2.9l-.8 1.9-4.6 10.3h-1.4zM43 .3V15h-1.3V7.2c0-1.6 0-2.9.1-4.2l-1.5 3.9-1.8 4.6h-1.3l-1.8-4.6L33.9 3h-.1c.1 1.3.1 2.6.1 4.2V15h-1.3V.3H34l2.6 6.3c.4.9.9 2.5 1.2 3.3h.1c.3-.8.8-2.3 1.2-3.3L41.7.3zM51.8 11.6h-4.7l-.9 3.4h-1.4L48.7.3h1.4L54 15h-1.4zm-.3-1.2L50 4.3c-.2-.9-.4-2-.5-2.3-.1.4-.3 1.4-.5 2.3l-1.5 6.1zM63.7.3V15h-1.3V8.1h-5.2V15h-1.3V.3h1.3v6.6h5.2V.3zM66.9.3h1.3v9.3c0 .7 0 2.1-.1 2.8h.1l1-2.4L73.5.3H75V15h-1.3V2.9l-.8 1.9-4.6 10.3h-1.4zM85.3 13.8V15h-7.1V.3H85v1.2h-5.5v5.4h5.3v1.2h-5.2v5.7zM87.5 14.2a1 1 0 1 1 1 1 .9.9 0 0 1-1-1zM87.9.3h1.3V12h-1.3z"/><path d="M105.2 10.6c0 2.8-1.7 4.4-4.2 4.4h-3.7V.3h7.1v1.2h-5.8v4.7h2.4a4 4 0 0 1 4.2 4.4zm-1.3 0a2.8 2.8 0 0 0-2.9-3.1h-2.4v6.3h2.4c1.6 0 2.8-1.1 2.8-3.2zM114.6 13.8V15h-7.1V.3h6.8v1.2h-5.5v5.4h5.2v1.2h-5.2v5.7zM116.6 10.9V4.5c0-2.8 1.6-4.4 3.9-4.4s3.9 1.5 4.1 4.2h-1.3c-.1-2.1-1.2-3.1-2.8-3.1s-2.7 1-2.7 3.2v6.4c0 2.2 1.1 3.2 2.8 3.2s2.6-1 2.9-3.1h1.3c-.2 2.7-1.7 4.2-4.1 4.2s-4.1-1.4-4.1-4.2zM134.9 15h-1.3V1.5h-5.2V15h-1.3V.3h7.8zM145.1.3V15h-1.3V1.5H140c-.2 4.6-.4 8.8-.6 10.6s-1.2 3-2.8 3v-1.2c1 0 1.4-.8 1.6-2s.4-5.7.7-11.7zM153.8 11.6h-4.7l-.9 3.4h-1.4L150.7.3h1.4L156 15h-1.4zm-.3-1.2L152 4.3c-.2-.9-.4-2-.5-2.3-.1.4-.3 1.4-.5 2.3l-1.5 6.1zM163.8 1.5h-3.2V15h-1.3V1.5h-3.2V.3h7.7zM173.6.3V15h-1.3V8.1h-5.2V15h-1.3V.3h1.3v6.6h5.2V.3zM176.4 10.5V4.9c0-3 1.6-4.8 4.2-4.8s4.2 1.9 4.2 4.8v5.6c0 3-1.6 4.8-4.2 4.8s-4.2-1.9-4.2-4.8zm7.1 0V4.9c0-2.3-1-3.6-2.9-3.6s-2.9 1.3-2.9 3.6v5.6c0 2.3 1 3.6 2.9 3.6s2.9-1.4 2.9-3.6zM200.3 15H199V1.5h-5.2V15h-1.3V.3h7.8zM211.3 4.8c0 3-1.5 4.6-4.2 4.6h-2.2V15h-1.3V.3h3.5c2.7 0 4.2 1.7 4.2 4.5zm-1.3 0c0-2.2-.9-3.3-2.9-3.3h-2.2v6.7h2.2c2 0 2.9-1 2.9-3.4zM220.3 13.8V15h-7.1V.3h6.8v1.2h-5.5v5.4h5.3v1.2h-5.2v5.7zM231.5 13.8v3.6h-1.3V15h-7.6v2.4h-1.3v-3.6h.8c.8-.8 1.5-2.8 1.6-5.5l.3-8h6.2v13.5zm-2.6-12.3h-3.7l-.3 7.1a10.5 10.5 0 0 1-1.2 5.1h5.1zM233.3 10.5V4.9c0-3 1.6-4.8 4.2-4.8s4.2 1.9 4.2 4.8v5.6c0 3-1.6 4.8-4.2 4.8s-4.2-1.9-4.2-4.8zm7.1 0V4.9c0-2.3-1-3.6-2.9-3.6s-2.9 1.3-2.9 3.6v5.6c0 2.3 1 3.6 2.9 3.6s2.9-1.4 2.9-3.6zM244.1 10.9V4.5c0-2.8 1.6-4.4 3.9-4.4s3.9 1.5 4.1 4.2h-1.3c-.1-2.1-1.2-3.1-2.8-3.1s-2.7 1-2.7 3.2v6.4c0 2.2 1.1 3.2 2.8 3.2s2.6-1 2.9-3.1h1.3c-.2 2.7-1.7 4.2-4.1 4.2s-4.1-1.4-4.1-4.2zM261.1 1.5h-3.2V15h-1.3V1.5h-3.2V.3h7.8zM267.9 11.6h-4.7l-.9 3.4h-1.4L264.8.3h1.4l3.9 14.7h-1.3zm-.3-1.2l-1.5-6.1c-.2-.9-.4-2-.5-2.3-.1.4-.3 1.4-.5 2.3l-1.5 6.1zM280 11c0 2.6-1.6 4-4.2 4H272V.3h3.4c2.5 0 3.9 1.4 3.9 3.8s-.8 2.9-1.9 3.3C279 7.7 280 9 280 11zm-6.7-9.5v5.3h2.2c1.7 0 2.5-.9 2.5-2.7s-.8-2.6-2.6-2.6zm5.3 9.5a2.8 2.8 0 0 0-3.1-2.9h-2.2v5.7h2.5c1.9 0 2.8-.9 2.8-2.8zM289.2.3V15h-1.3V1.5h-3.8c-.2 4.6-.4 8.8-.6 10.6s-1.2 3-2.8 3v-1.2c1 0 1.4-.8 1.6-2s.4-5.7.7-11.7zM295 9.1c-2.1-.4-3.2-2-3.2-4.3S293.4.3 296 .3h3.3V15H298V9.2h-1.6l-3.5 5.8h-1.5zm3-1.1V1.6h-2c-1.9 0-2.9 1.1-2.9 3.2s1 3.3 2.8 3.3zM309.6 13.8V15h-7.1V.3h6.8v1.2h-5.5v5.4h5.2v1.2h-5.2v5.7zM322.5.3V15h-1.3V7.2c0-1.6 0-2.9.1-4.2h-.1l-1.5 3.9-1.8 4.6h-1.3l-1.8-4.6-1.5-3.9h-.1c.1 1.3.1 2.6.1 4.2V15H312V.3h1.4l2.6 6.3c.4.9.9 2.5 1.2 3.3h.1c.3-.8.8-2.3 1.2-3.3l2.6-6.3zM330.1 10.5V4.9c0-3 1.6-4.8 4.2-4.8s4.2 1.9 4.2 4.8v5.6c0 3-1.6 4.8-4.2 4.8s-4.2-1.9-4.2-4.8zm7.1 0V4.9c0-2.3-1-3.6-2.9-3.6s-2.9 1.3-2.9 3.6v5.6c0 2.3 1 3.6 2.9 3.6s3-1.4 3-3.6zM349.3 10.6c0 2.8-1.7 4.4-4.2 4.4h-3.7V.3h7.1v1.2h-5.8v4.7h2.4a4 4 0 0 1 4.2 4.4zm-1.3 0a2.8 2.8 0 0 0-2.9-3.1h-2.4v6.3h2.4c1.7 0 2.9-1.1 2.9-3.2zM359.4 4.8c0 3-1.5 4.6-4.2 4.6H353V15h-1.3V.3h3.5c2.7 0 4.2 1.7 4.2 4.5zm-1.3 0c0-2.2-.9-3.3-2.9-3.3H353v6.7h2.2c2 0 2.9-1 2.9-3.4zM366.5 11.6h-4.7l-.9 3.4h-1.4L363.4.3h1.4l3.9 14.7h-1.4zm-.3-1.2l-1.5-6.1c-.2-.9-.4-2-.5-2.3-.1.4-.3 1.4-.5 2.3l-1.5 6.1zM378.1 11.1a3.9 3.9 0 0 1-4.1 4.2 4.1 4.1 0 0 1-4.3-4.2h1.3a2.8 2.8 0 0 0 2.9 2.9 2.7 2.7 0 0 0 2.9-2.9 2.9 2.9 0 0 0-3.2-3h-1.2V6.9h1c1.7 0 3-.8 3-2.8a2.4 2.4 0 0 0-2.6-2.7c-1.7 0-2.5 1.1-2.7 3h-1.3c.1-2.6 1.5-4.2 4-4.2s3.9 1.5 3.9 4.1a3 3 0 0 1-2.4 3.3 3.4 3.4 0 0 1 2.8 3.5zM388.3 15h-7.8V.3h1.3v13.5h5.1V.3h1.3v13.5h1.3v3.6h-1.3zM391.7.3h1.3v6.2h2.1a4 4 0 0 1 4.3 4.2 4 4 0 0 1-4.3 4.3h-3.4zm3.4 13.5a2.8 2.8 0 0 0 3-3.1 2.7 2.7 0 0 0-3-3H393v6.1zM401.5.3h1.3V15h-1.3zM418.7 15h-1.3V1.5h-5.2V15h-1.3V.3h7.8zM429.7 4.8c0 3-1.5 4.6-4.2 4.6h-2.2V15H422V.3h3.5c2.7 0 4.2 1.7 4.2 4.5zm-1.3 0c0-2.2-.9-3.3-2.9-3.3h-2.2v6.7h2.2c2 0 2.9-1 2.9-3.4zM431.6 10.5V4.9c0-3 1.6-4.8 4.2-4.8S440 2 440 4.9v5.6c0 3-1.6 4.8-4.2 4.8s-4.2-1.9-4.2-4.8zm7.1 0V4.9c0-2.3-1-3.6-2.9-3.6s-2.9 1.3-2.9 3.6v5.6c0 2.3 1 3.6 2.9 3.6s3-1.4 3-3.6zM451.6 13.8v3.6h-1.3V15h-7.6v2.4h-1.3v-3.6h.8c.8-.8 1.5-2.8 1.6-5.5l.3-8h6.2v13.5zM449 1.5h-3.7l-.3 7.1a10.5 10.5 0 0 1-1.2 5.1h5.1zM460.5.3l-3.7 12.1c-.5 1.6-1.4 2.8-3.2 2.8h-.5V14h.5c1.1 0 1.7-.8 2-2l.5-1.6L452.3.3h1.4l2.9 8.2 2.5-8.2zM464.6 7.9l-1 1.4V15h-1.3V.3h1.3v7l1.2-1.7 3.8-5.3h1.6l-4.7 6.4 5.3 8.3h-1.6zM480.1 15h-7.8V.3h1.3v13.5h5.1V.3h1.3v13.5h1.3v3.6H480zM483.5.3h1.3v9.3c0 .7 0 2.1-.1 2.8h.1l1-2.4 4.3-9.7h1.5V15h-1.3V2.9l-.8 1.9-4.6 10.3h-1.4zM494.9.3h1.3v9.3c0 .7 0 2.1-.1 2.8h.1l1-2.4 4.3-9.7h1.5V15h-1.3V2.9l-.9 1.8-4.6 10.3h-1.4zM505.9 14.2a1 1 0 1 1 1 1 .9.9 0 0 1-1-1zm.4-13.9h1.3V12h-1.3z"/></svg>
